<svg height='300px' width='300px'  fill="#000000" xmlns="http://www.w3.org/2000/svg" xmlns:xlink="http://www.w3.org/1999/xlink" version="1.1" x="0px" y="0px" viewBox="0 0 67 67" enable-background="new 0 0 67 67" xml:space="preserve"><g><path d="M64.5,55.9262695h-1.4921875V11.034668c0-1.09375-0.890625-1.984375-1.984375-1.984375h-8.5107422v2l8.4951172-0.015625   v44.8896484H5.9873047L5.9716797,11.050293h8.5107422v-2H5.9716797c-1.09375,0-1.984375,0.890625-1.984375,1.984375v44.8916016H2.5   c-0.3144531,0-0.6103516,0.1474609-0.7988281,0.3984375c-0.1894531,0.2519531-0.2490234,0.5771484-0.1621094,0.8789063   l1.1542969,3.9990234c0.6699219,2.3242188,2.6396484,3.8867188,4.9013672,3.8867188h51.8105469   c2.2607422,0,4.2304688-1.5615234,4.9023438-3.8867188l1.1533203-3.9990234   c0.0869141-0.3017578,0.0273438-0.6279297-0.1621094-0.8789063C65.1103516,56.0737305,64.8144531,55.9262695,64.5,55.9262695z    M28.6025391,57.9262695h9.7958984v0.5820313c0,0.5517578-0.4482422,1-1,1h-7.7958984c-0.5517769,0-1-0.4482422-1-1V57.9262695z    M62.3857422,60.6479492c-0.421875,1.4599609-1.6191406,2.4414063-2.9804688,2.4414063H7.5947266   c-1.3613281,0-2.5585938-0.9814453-2.9794922-2.4414063l-0.7861328-2.7216797h22.7734375v0.5820313c0,1.6542969,1.3457031,3,3,3   h7.7958984c1.6542969,0,3-1.3457031,3-3v-0.5820313h22.7724609L62.3857422,60.6479492z"></path><path d="M10.4990234,15.5776367h3.9833984v-2h-3.9833984c-1.09375,0-1.984375,0.8896484-1.984375,1.9833984V53.387207h49.9658203   V15.5610352c0-1.09375-0.8896484-1.9833984-1.9833984-1.9833984h-3.984375v2l3.9677734-0.0166016V51.387207H10.5146484   L10.4990234,15.5776367z"></path><path d="M18.4892578,1.9223633c-1.6542969,0-3,1.3457031-3,3v41.640625c0,1.6542969,1.3457031,3,3,3h30.0166016   c1.6542969,0,3-1.3457031,3-3V9.1109009l0.0292969-0.0264282l-6.4755859-7.1738281l-0.0292969,0.0264282V1.9223633H18.4892578z    M49.5058594,46.5629883c0,0.5517578-0.4482422,1-1,1H18.4892578c-0.5517578,0-1-0.4482422-1-1V4.9223633   c0-0.5517578,0.4482422-1,1-1h24.5410156v7.1738281h6.4755859V46.5629883z M48.8519287,9.0961914h-3.8216553V4.8624878   L48.8519287,9.0961914z"></path><polygon points="23.7910156,23.9311523 25.5419922,22.1801758 27.2929688,23.9311523 28.7070313,22.5170898 26.9560547,20.7661133    28.7070313,19.0151367 27.2929688,17.6010742 25.5419922,19.3520508 23.7910156,17.6010742 22.3769531,19.0151367    24.1279297,20.7661133 22.3769531,22.5170898  "></polygon><polygon points="39.7070313,17.6010742 38.2929688,19.0151367 40.0443115,20.7661133 38.2929688,22.5170898 39.7070313,23.9311523    41.4584961,22.1800537 43.2099609,23.9311523 44.6240234,22.5170898 42.8726807,20.7661133 44.6240234,19.0151367    43.2099609,17.6010742 41.4584961,19.3521729  "></polygon><path d="M23.3984375,35.6674805h3v2.6015625c0,2.3564453,1.9179688,4.2734375,4.2744141,4.2734375   s4.2734375-1.9169922,4.2734375-4.2734375v-2.6015625h8.65625v-2c-6.2975464,0-13.9266968,0-20.2041016,0V35.6674805z    M28.3984375,35.6674805h4.5478516v2.6015625c0,1.2539063-1.0195313,2.2734375-2.2734375,2.2734375   s-2.2744141-1.0195313-2.2744141-2.2734375V35.6674805z"></path><rect x="29.6728516" y="36.6674805" width="2" height="2.875"></rect><rect x="32.5" y="26.6782227" width="2" height="3.0625"></rect></g></svg>
